<svg width="24" height="24" viewBox="0 0 24 24" fill="none" xmlns="http://www.w3.org/2000/svg">
<path d="M3.9625 7.77004C3.77451 8.53557 3.6372 9.52416 3.44619 10.8995C3.01002 14.0399 2.79193 15.6101 3.27146 16.8297C3.69243 17.9003 4.46972 18.793 5.47226 19.3573C6.61423 20 8.19952 20 11.3701 20H12.9943C16.1649 20 17.7502 20 18.8922 19.3573C19.8947 18.793 20.672 17.9003 21.093 16.8297C21.5725 15.6101 21.3544 14.0399 20.9183 10.8995C20.7108 9.40583 20.5667 8.36829 20.3522 7.57727L19.6218 8.30771C17.9895 9.93999 16.7104 11.2192 15.5781 12.0831C14.4192 12.9673 13.3264 13.4868 12.061 13.4868C10.7955 13.4868 9.70279 12.9673 8.54386 12.0831C7.4116 11.2192 6.13243 9.93999 4.50017 8.30771L3.9625 7.77004Z" fill="#FF9900"/>
<path d="M4.57488 6.2611L5.52024 7.20646C7.2019 8.88812 8.41092 10.0949 9.45373 10.8905C10.4792 11.673 11.2554 11.9868 12.061 11.9868C12.8666 11.9868 13.6427 11.673 14.6682 10.8905C15.711 10.0949 16.9201 8.88812 18.6017 7.20646L19.6914 6.11676C19.1834 5.39704 18.4934 4.82309 17.6901 4.45483C16.6979 4 15.4634 4 12.9943 4H11.3701C8.90107 4 7.66655 4 6.67438 4.45483C5.81807 4.84739 5.09045 5.47367 4.57488 6.2611Z" fill="#FF9900"/>
</svg>
