
<svg display="none">
	<defs>
		<g id="calling">
			<path xmlns="http://www.w3.org/2000/svg" fill="#FF9900" d="M12.99 2.75C13.8509 2.75 14.2319 2.75075 14.5461 2.77888C18.0394 3.09165 20.8079 5.86016 21.1207 9.35347C21.1488 9.66768 21.1496 10.0487 21.1496 10.9095V11.8995C21.1496 12.3137 21.4854 12.6495 21.8996 12.6495C22.3138 12.6495 22.6496 12.3137 22.6496 11.8995V10.8591C22.6496 10.0622 22.6496 9.60933 22.6147 9.21971C22.2372 5.00365 18.8959 1.66233 14.6799 1.28486C14.2902 1.24997 13.8374 1.24998 13.0404 1.25H12.0001C11.5859 1.25 11.2501 1.58579 11.2501 2C11.2501 2.41421 11.5859 2.75 12.0001 2.75L12.99 2.75Z"/><path xmlns="http://www.w3.org/2000/svg" fill="#FF9900" d="M7.1118 4.0253C6.05971 3.05856 4.44256 3.05856 3.39047 4.0253C3.34739 4.06488 3.30139 4.11089 3.24167 4.17062L2.34416 5.06813C1.44105 5.97124 1.06193 7.27316 1.33899 8.51994C2.91096 15.5938 8.4355 21.1183 15.5094 22.6903C16.7561 22.9674 18.0581 22.5883 18.9612 21.6851L19.8586 20.7877C19.9184 20.728 19.9644 20.6819 20.004 20.6388C20.9707 19.5867 20.9707 17.9696 20.004 16.9175C19.9644 16.8744 19.9184 16.8284 19.8586 16.7686L18.3893 15.2993C17.3692 14.2792 15.8287 13.9875 14.5062 14.564C13.7491 14.894 12.8672 14.7269 12.2832 14.1429L9.88636 11.7461C9.30236 11.1621 9.13533 10.2802 9.46535 9.52308C10.0418 8.20061 9.75006 6.66009 8.72996 5.63998L7.26063 4.17065C7.20089 4.1109 7.15489 4.06489 7.1118 4.0253Z"/><path xmlns="http://www.w3.org/2000/svg" fill="#FF9900" d="M12.7071 4.78553C12.2929 4.78553 11.9571 5.12132 11.9571 5.53553C11.9571 5.94974 12.2929 6.28553 12.7071 6.28553H13.2728C13.36 6.28553 13.3957 6.28555 13.4248 6.28597C15.7244 6.3189 17.5806 8.17509 17.6135 10.4747C17.6139 10.5037 17.6139 10.5395 17.6139 10.6267V11.1924C17.6139 11.6066 17.9497 11.9424 18.3639 11.9424C18.7781 11.9424 19.1139 11.6066 19.1139 11.1924V10.6194C19.1139 10.5417 19.1139 10.4944 19.1133 10.4532C19.0688 7.342 16.5575 4.83068 13.4463 4.78612C13.405 4.78553 13.3577 4.78553 13.28 4.78553H12.7071Z"/>
		</g>
		<g id="location">
			<path xmlns="http://www.w3.org/2000/svg" fill="#FF9900" d="M14.7808 19.7005L14.1906 19.2377L14.1906 19.2377L14.7808 19.7005ZM9.21921 19.7005L8.62903 20.1633L9.21921 19.7005ZM12 22.0055L12 21.2555L12 22.0055ZM19.25 9.6087C19.25 10.8352 18.6104 12.4764 17.6037 14.256C16.6137 16.0063 15.3342 17.7794 14.1906 19.2377L15.371 20.1633C16.5371 18.6762 17.8672 16.837 18.9094 14.9945C19.9349 13.1814 20.75 11.2494 20.75 9.6087H19.25ZM9.80938 19.2377C8.66578 17.7794 7.38628 16.0063 6.39625 14.256C5.38962 12.4764 4.75 10.8352 4.75 9.6087H3.25C3.25 11.2494 4.06511 13.1814 5.09064 14.9945C6.13277 16.837 7.46288 18.6762 8.62903 20.1633L9.80938 19.2377ZM4.75 9.6087C4.75 5.21571 8.04678 1.75 12 1.75V0.25C7.11666 0.25 3.25 4.49277 3.25 9.6087H4.75ZM12 1.75C15.9532 1.75 19.25 5.21571 19.25 9.6087H20.75C20.75 4.49277 16.8833 0.25 12 0.25V1.75ZM14.1906 19.2377C13.5717 20.027 13.1641 20.5426 12.7992 20.8741C12.4664 21.1764 12.2442 21.2555 12 21.2555L12 22.7555C12.7291 22.7555 13.2948 22.4504 13.8078 21.9844C14.2886 21.5476 14.7849 20.9107 15.371 20.1633L14.1906 19.2377ZM8.62903 20.1633C9.21511 20.9107 9.71136 21.5476 10.1922 21.9844C10.7052 22.4504 11.2709 22.7555 12 22.7555L12 21.2555C11.7558 21.2555 11.5336 21.1764 11.2008 20.8741C10.8359 20.5426 10.4283 20.027 9.80938 19.2377L8.62903 20.1633ZM8.25 10C8.25 12.0711 9.92893 13.75 12 13.75V12.25C10.7574 12.25 9.75 11.2426 9.75 10H8.25ZM12 13.75C14.0711 13.75 15.75 12.0711 15.75 10H14.25C14.25 11.2426 13.2426 12.25 12 12.25V13.75ZM15.75 10C15.75 7.92893 14.0711 6.25 12 6.25V7.75C13.2426 7.75 14.25 8.75736 14.25 10H15.75ZM12 6.25C9.92893 6.25 8.25 7.92893 8.25 10H9.75C9.75 8.75736 10.7574 7.75 12 7.75V6.25Z"/>
		</g>
		<g id="message">
			<path xmlns="http://www.w3.org/2000/svg" fill="#FF9900" d="M3.9625 7.77004C3.77451 8.53557 3.6372 9.52416 3.44619 10.8995C3.01002 14.0399 2.79193 15.6101 3.27146 16.8297C3.69243 17.9003 4.46972 18.793 5.47226 19.3573C6.61423 20 8.19952 20 11.3701 20H12.9943C16.1649 20 17.7502 20 18.8922 19.3573C19.8947 18.793 20.672 17.9003 21.093 16.8297C21.5725 15.6101 21.3544 14.0399 20.9183 10.8995C20.7108 9.40583 20.5667 8.36829 20.3522 7.57727L19.6218 8.30771C17.9895 9.93999 16.7104 11.2192 15.5781 12.0831C14.4192 12.9673 13.3264 13.4868 12.061 13.4868C10.7955 13.4868 9.70279 12.9673 8.54386 12.0831C7.4116 11.2192 6.13243 9.93999 4.50017 8.30771L3.9625 7.77004Z"/><path xmlns="http://www.w3.org/2000/svg" fill="#FF9900" d="M4.57488 6.2611L5.52024 7.20646C7.2019 8.88812 8.41092 10.0949 9.45373 10.8905C10.4792 11.673 11.2554 11.9868 12.061 11.9868C12.8666 11.9868 13.6427 11.673 14.6682 10.8905C15.711 10.0949 16.9201 8.88812 18.6017 7.20646L19.6914 6.11676C19.1834 5.39704 18.4934 4.82309 17.6901 4.45483C16.6979 4 15.4634 4 12.9943 4H11.3701C8.90107 4 7.66655 4 6.67438 4.45483C5.81807 4.84739 5.09045 5.47367 4.57488 6.2611Z"/>
		</g>
	</defs>
</svg>
